<?xml version="1.0" standalone="no"?>
<!DOCTYPE svg PUBLIC "-//W3C//DTD SVG 20010904//EN"
 "http://www.w3.org/TR/2001/REC-SVG-20010904/DTD/svg10.dtd">
<svg version="1.0" xmlns="http://www.w3.org/2000/svg"
 width="512.000000pt" height="512.000000pt" viewBox="0 0 512.000000 512.000000"
 preserveAspectRatio="xMidYMid meet">
<metadata>
Created by potrace 1.11, written by Peter Selinger 2001-2013
</metadata>
<g transform="translate(0.000000,512.000000) scale(0.100000,-0.100000)"
fill="#000000" stroke="none">
<path d="M617 4748 c-6 -40 -6 -469 1 -503 3 -20 15 -27 61 -41 31 -9 184 -56
341 -106 480 -151 990 -310 1230 -385 80 -24 179 -55 220 -69 41 -13 83 -24
93 -24 11 0 92 23 181 51 88 28 195 61 236 74 41 13 149 47 240 75 91 29 179
56 195 60 77 21 1090 342 1095 346 7 7 7 541 0 548 -3 2 -75 -15 -160 -40 -85
-25 -162 -47 -170 -49 -8 -2 -370 -105 -805 -230 -434 -124 -799 -226 -810
-227 -11 0 -249 66 -530 147 -280 81 -517 148 -525 150 -32 7 -797 227 -838
241 -23 8 -44 14 -46 14 -2 0 -6 -15 -9 -32z"/>
<path d="M664 3854 c4 -43 9 -95 11 -114 9 -70 16 -126 26 -195 6 -38 12 -81
14 -95 4 -26 12 -77 20 -120 5 -31 55 -289 60 -310 2 -8 13 -55 24 -105 12
-49 24 -101 27 -115 3 -14 17 -65 31 -115 14 -49 26 -97 28 -105 2 -8 22 -73
45 -145 160 -503 380 -945 641 -1291 172 -228 393 -444 615 -601 164 -116 345
-216 373 -205 9 3 67 35 130 70 251 140 487 334 701 578 199 225 400 545 547
869 68 149 83 184 83 190 0 3 8 25 19 48 97 219 262 808 316 1127 3 19 8 42
10 50 2 8 6 33 10 55 3 22 10 65 15 95 6 30 12 78 15 105 3 28 8 57 10 65 2 8
7 42 10 75 4 33 8 67 10 75 2 8 7 51 11 95 3 44 8 83 11 88 2 4 2 7 0 7 -4 0
-912 -339 -957 -357 -8 -3 -42 -16 -75 -28 -33 -12 -241 -90 -462 -174 -221
-83 -409 -151 -418 -151 -14 0 -488 172 -550 200 -20 9 -322 123 -550 207 -66
24 -131 49 -144 54 -13 6 -133 51 -265 100 -204 76 -281 106 -385 147 -11 4
-12 -9 -7 -74z"/>
</g>
</svg>
